<?xml version="1.0" standalone="no"?>
<!DOCTYPE svg PUBLIC "-//W3C//DTD SVG 20010904//EN"
 "http://www.w3.org/TR/2001/REC-SVG-20010904/DTD/svg10.dtd">
<svg version="1.0" xmlns="http://www.w3.org/2000/svg"
 width="424.000000pt" height="406.000000pt" viewBox="0 0 424.000000 406.000000"
 preserveAspectRatio="xMidYMid meet">

<g transform="translate(0.000000,406.000000) scale(0.100000,-0.100000)"
fill="#000000" stroke="none">
<path d="M691 3070 l-400 -640 155 -1002 c84 -552 156 -1020 160 -1040 l6 -38
284 0 285 0 -6 48 c-6 55 -35 396 -35 418 0 11 24 14 139 14 l140 0 5 -42 c6
-45 36 -400 36 -424 0 -12 90 -14 590 -14 500 0 590 2 590 14 0 24 30 379 36
423 l5 43 140 0 c115 0 139 -3 139 -14 0 -22 -29 -363 -35 -418 l-6 -48 285 0
284 0 6 37 c4 21 76 489 160 1041 l155 1002 -400 640 -400 640 -959 0 -959 0
-400 -640z m1063 -92 c-8 -51 -16 -105 -19 -120 l-4 -28 319 0 320 0 -5 28
c-3 15 -11 69 -19 120 l-13 92 259 0 258 0 161 -321 160 -321 -76 -612 c-42
-336 -78 -623 -81 -639 l-6 -27 -958 0 -958 0 -6 27 c-3 16 -39 303 -81 639
l-76 612 160 321 161 321 258 0 259 0 -13 -92z"/>
<path d="M2548 2153 c-84 -95 -65 -573 22 -573 69 0 104 330 54 501 -15 51
-38 89 -54 89 -4 0 -14 -8 -22 -17z"/>
<path d="M1520 2098 c-58 -132 -45 -475 21 -534 18 -16 20 -16 38 0 87 79 70
576 -19 576 -15 0 -26 -12 -40 -42z"/>
</g>
</svg>
