<svg fill="none" height="45" width="45" xmlns="http://www.w3.org/2000/svg">
<g fill="#000">
  <path d="m1.32.00000001h42.36c.3462-.00005028.6786.13592799.9255.37862999.2469.242703.3886.572697.3945.91887v4.23617c0 .37062 0 .55594-.0722.69749-.0634.12452-.1647.22576-.2892.28921-.1415.07212-.3268.07212-.6975.07212h-9.5011c-.8608.03418-1.7023.26508-2.46.675l-20.25 11.89501c-.7605.4098-1.6044.6406-2.46751.675h-8.20367c-.37062 0-.555931 0-.697491-.0721-.124518-.0635-.225755-.1647-.289201-.2892-.072128-.1416-.072128-.3269-.072128-.6975v-5.8249c0-.3706 0-.5559.072128-.6975.063446-.1245.164683-.2257.289201-.2892.14156-.0721.326871-.0721.697491-.0721h8.20367c.86261.038 1.70571.2686 2.46751.675l2.25 1.3125c.3478.1795.7336.2732 1.125.2732s.7772-.0937 1.125-.2732l2.88-1.695c.1228-.0629.2259-.1586.2979-.2763.072-.1178.1101-.2532.1101-.3912s-.0381-.2734-.1101-.3912c-.072-.1177-.1751-.2134-.2979-.2763l-6.06-3.56251c-.7591-.4065-1.5998-.63719-2.46-.675h-9.53118c-.37062 0-.555931 0-.697491-.07212-.124518-.06345-.225755-.16469-.289201-.28921-.072128-.14155-.072128-.32687-.072128-.69749v-4.23617c0-.350087.139071-.685833.386619-.933381.247547-.247548.583294-.38661899.933381-.38661899z"/>
  <path d="m35.7375 11.9099c-.8626.038-1.7057.2686-2.4675.675l-20.25 11.9025c-.7591.4065-1.5998.6372-2.46.675h-9.50118c-.37062 0-.555931 0-.697491.0721-.124518.0635-.225755.1647-.289201.2892-.072128.1416-.072128.3269-.072128.6975v5.8249c0 .3706 0 .5559.072128.6975.063446.1245.164683.2257.289201.2892.14156.0721.326871.0721.697491.0721h8.20367c.86261-.038 1.70571-.2686 2.46751-.675l20.25-11.9025c.759-.4065 1.5997-.6372 2.46-.675h9.5011c.3707 0 .556 0 .6975-.0721.1245-.0635.2258-.1647.2892-.2892.0722-.1416.0722-.3269.0722-.6975v-5.8249c0-.3706 0-.5559-.0722-.6975-.0634-.1245-.1647-.2257-.2892-.2892-.1415-.0721-.3268-.0721-.6975-.0721z"/>
  <path d="m35.7375 25.17c-.8626.038-1.7057.2686-2.4675.675l-20.25 11.895c-.7577.4099-1.5992.6408-2.46.675h-9.50118c-.37062 0-.555931 0-.697491.0721-.124518.0635-.225755.1647-.289201.2892-.072128.1416-.072128.3269-.072128.6975v4.2362c.00972345.3442.152842.6712.399137.9119s.576488.3763.920863.3781h42.36c.3481-.0019.6816-.1406.9285-.3861.247-.2455.3875-.5782.3915-.9264v-4.2362c0-.3706 0-.5559-.0722-.6975-.0634-.1245-.1647-.2257-.2892-.2892-.1415-.0721-.3268-.0721-.6975-.0721h-9.5311c-.8608-.0342-1.7023-.2651-2.46-.675l-6.06-3.555c-.1248-.0622-.2298-.158-.3032-.2765-.0734-.1186-.1123-.2553-.1123-.3947 0-.1395.0389-.2762.1123-.3947.0734-.1186.1784-.2144.3032-.2766l2.88-1.6875c.3478-.1795.7335-.2732 1.125-.2732.3914 0 .7772.0937 1.125.2732l2.25 1.305c.7604.4098 1.6043.6407 2.4675.675h8.2036c.3707 0 .556 0 .6975-.0721.1245-.0635.2258-.1647.2892-.2892.0722-.1416.0722-.3269.0722-.6975v-5.8249c0-.3706 0-.5559-.0722-.6974-.0634-.1246-.1647-.2258-.2892-.2893-.1415-.0721-.3268-.0721-.6975-.0721z"/>
</g>
</svg>
