<svg fill="none" height="45" width="45" xmlns="http://www.w3.org/2000/svg">
<g fill="#000">
<path d="m43.6259 0h-42.24439c-.3664 0-.717791.145552-.976875.404635-.259083.259084-.404635.610475-.404635.976875v4.73605c0 .37063 0 .55594.0721279.6975.0634451.12452.1646821.22575.2892011.2892.141559.07213.32687.07213.697491.07213h21.44118c2.7726.00188 5.4929.75565 7.8711 2.18105 2.3782 1.42536 4.3253 3.46906 5.6341 5.91336 1.3087 2.4444 1.9301 5.1979 1.7979 7.9674-.1006 2.1091-.6354 4.1674-1.563 6.0488-.31.6287-.465.9431-.4338 1.1486.029.1912.1172.3331.2759.4437.1705.1188.4965.1188 1.1484.1188h6.6731c.3707 0 .556 0 .6975-.0721.1246-.0635.2258-.1647.2892-.2892.0722-.1416.0722-.3269.0722-.6975v-28.55779c.0021-.35933-.1367-.705181-.3866-.963424-.2498-.258243-.5909-.40832746-.9501-.418086z"/>
<path d="m7.17639 22.5c-.00256-2.3621.54218-4.6833 1.58034-6.7854.31091-.6296.46637-.9444.43528-1.1499-.02895-.1914-.1171-.3332-.27584-.4439-.17056-.1189-.49697-.1189-1.14978-.1189h-6.70757c-.37062 0-.555932 0-.697491.0721-.124519.0634-.225756.1647-.2892011.2892-.0721279.1416-.0721279.3269-.0721279.6975v28.5652c-.00000267.1811.0357839.3604.105303.5276.069518.1672.171398.319.299781.4467.128384.1277.28074.2287.44831.2973.167566.0687.347046.1035.528116.1025h42.24439c.3644 0 .7139-.1448.9716-.4025.2576-.2576.4024-.6071.4024-.9716v-4.7435c0-.3706 0-.5559-.0721-.6975-.0635-.1245-.1647-.2257-.2892-.2892-.1416-.0721-.3269-.0721-.6975-.0721h-21.4411c-4.0641 0-7.9617-1.6145-10.8354-4.4882-2.87377-2.8737-4.48821-6.7713-4.48821-10.8354z"/>
<path clip-rule="evenodd" d="m29.3627 23.1497c1.4648-.1621 2.9028-.5109 4.2789-1.038v-.0523c.4071-.1258.8469-.0901 1.2283.0997s.6751.5191.8202.9197c.145.4006.1303.8416-.0412 1.2316-.1714.39-.4864.6991-.8796.863-2.0033.7896-4.128 1.2267-6.2803 1.2919h-.3809c-.3841.5345-.8416 1.0121-1.3591 1.4188.8811.8644 1.8554 1.6283 2.9049 2.2777.3704.2347.6324.6069.7283 1.0347s.018.8763-.2167 1.2466c-.2347.3704-.6069.6324-1.0348.7283-.4278.0959-.8762.018-1.2466-.2167-1.6275-.993-3.0891-2.2353-4.3312-3.6816-.3486.0514-.7006.0764-1.0529.0747h-.6721c.053.5505.1428 1.0969.2688 1.6354.1045.4705.239.9633.4033 1.4935.0848.3055.1825.5767.2866.8656.0333.0924.0673.1867.1017.2844.108.2957.1288.6161.06.9233-.0688.3071-.2245.588-.4483.8092-.17.1696-.3735.3019-.5975.3884-.1821.0647-.3741.0976-.5675.097-.3342.0026-.6612-.0969-.9374-.285-.2761-.1881-.4884-.456-.6084-.7679-.4596-1.2242-.8119-2.486-1.0529-3.7711-.1859-.9516-.2661-1.9208-.239-2.89-.5311-.3881-1.0083-.8452-1.4188-1.3591-.8548.8799-1.6065 1.8545-2.2403 2.9049-.1517.2331-.3601.4239-.6056.5545-.2456.1306-.5203.1968-.7983.1922-.2965.0011-.5878-.0778-.8433-.2282-.2555-.1505-.4657-.367-.6086-.6268s-.2131-.5532-.2034-.8496c.0098-.2963.0992-.5845.2588-.8344.9933-1.6316 2.2383-3.0959 3.689-4.3386-.0539-.3459-.0813-.6954-.0821-1.0455 0-.112.0093-.224.0186-.3361.0094-.112.0187-.224.0187-.336-1.4887.1672-2.9495.5261-4.3461 1.0679-.412.1505-.8669.1312-1.2646-.0537-.39773-.1848-.70573-.5201-.85625-.9321-.15052-.4119-.13123-.8668.05363-1.2645s.52014-.7057.93212-.8563c2.1194-.8544 4.3834-1.293 6.6686-1.2919.3839-.5346.8414-1.0123 1.3591-1.4188-.8843-.853-1.8611-1.6044-2.9124-2.2403-.3517-.2434-.5958-.6133-.6812-1.0324-.0853-.4191-.0054-.855.2231-1.2166.2285-.3615.5879-.6208 1.0031-.7235.4152-.1028.8541-.0411 1.2248.1721 1.6325.9953 3.0989 2.24 4.3462 3.6891.5679-.0917 1.1456-.1067 1.7175-.0449-.0446-.5743-.1244-1.1454-.2389-1.71-.112-.463-.2465-.9634-.4107-1.4936-.1121-.3957-.239-.7467-.3884-1.1425-.1068-.297-.127-.6183-.0582-.9263.0687-.3081.2236-.59026.4466-.81366.1697-.17161.3767-.30192.6048-.38085.204-.07499.4207-.10897.6378-.09998.2171.00898.4303.06075.6274.15234.197.09159.374.22118.5209.38135.1468.16017.2606.34777.3347.552.4561 1.2253.8084 2.4868 1.053 3.7712.1803.9548.2579 1.9261.2315 2.8974.5359.3794 1.0139.8347 1.4188 1.3516.8659-.8796 1.63-1.8541 2.2776-2.9049.2347-.3703.6069-.6323 1.0348-.7282.4278-.0959.8762-.018 1.2466.2167s.6323.6069.7283 1.0347c.0959.4279.0179.8763-.2168 1.2467-.993 1.6296-2.2352 3.0936-3.6815 4.3387.0815.5713.0966 1.1502.0448 1.725zm-3.1887-.351v-.2987h.0299c-.0105-.6853-.2095-1.3544-.575-1.9341-.0967-.1607-.2066-.3131-.3286-.4556-.5106-.6004-1.198-1.0238-1.964-1.2097-.1865-.045-.3762-.0749-.5675-.0896h-.2987c-.6824.0015-1.3514.1901-1.9341.5451-.1604.1035-.3149.2157-.463.3361-.5977.5116-1.0185 1.199-1.2023 1.9639-.045.184-.0749.3713-.0896.5601v.2987c.0015.6824.1901 1.3514.5451 1.9341.1017.1616.2139.3163.3361.463.3136.3725.6983.6786 1.1318.9004.4334.2218.9067.355 1.3922.3915h.2987c.6824-.0015 1.3514-.1901 1.9341-.5451.1608-.0967.3131-.2066.4556-.3286.3746-.3138.6826-.6995.9058-1.1343s.357-.9099.3935-1.3972z" fill-rule="evenodd"/>
</g></svg>
